{
  "accessors": [
    {
      "bufferView": 2,
      "componentType": 5126,
      "count": 8441,
      "max": [
        1.0000001192092896,
        1.9976414442062378,
        1.0000001192092896
      ],
      "min": [
        -1.0000001192092896,
        0.03167259693145752,
        -1.0000001192092896
      ],
      "type": "VEC3"
    },
    {
      "bufferView": 2,
      "byteOffset": 101292,
      "componentType": 5126,
      "count": 8441,
      "max": [
        1,
        1,
        1
      ],
      "min": [
        -1,
        -1,
        -1
      ],
      "type": "VEC3"
    },
    {
      "bufferView": 1,
      "componentType": 5126,
      "count": 8441,
      "max": [
        1.0000003576278687,
        1.0000003576278687
      ],
      "min": [
        0,
        0
      ],
      "type": "VEC2"
    },
    {
      "bufferView": 0,
      "componentType": 5125,
      "count": 29760,
      "max": [
        8440
      ],
      "min": [
        0
      ],
      "type": "SCALAR"
    },
    {
      "bufferView": 2,
      "byteOffset": 202584,
      "componentType": 5126,
      "count": 128,
      "max": [
        1,
        0,
        1
      ],
      "min": [
        -1,
        -3.8725941181182861,
        -1
      ],
      "type": "VEC3"
    },
    {
      "bufferView": 2,
      "byteOffset": 204120,
      "componentType": 5126,
      "count": 128,
      "max": [
        0.99140822887420654,
        0.98960608243942261,
        0.99140822887420654
      ],
      "min": [
        -0.99140822887420654,
        -0.98960608243942261,
        -0.99140822887420654
      ],
      "type": "VEC3"
    },
    {
      "bufferView": 1,
      "byteOffset": 67528,
      "componentType": 5126,
      "count": 128,
      "max": [
        0,
        0
      ],
      "min": [
        0,
        0
      ],
      "type": "VEC2"
    },
    {
      "bufferView": 0,
      "byteOffset": 119040,
      "componentType": 5125,
      "count": 756,
      "max": [
        127
      ],
      "min": [
        0
      ],
      "type": "SCALAR"
    },
    {
      "bufferView": 2,
      "byteOffset": 205656,
      "componentType": 5126,
      "count": 128,
      "max": [
        1,
        0,
        1
      ],
      "min": [
        -1,
        -3.8725941181182861,
        -1
      ],
      "type": "VEC3"
    },
    {
      "bufferView": 2,
      "byteOffset": 207192,
      "componentType": 5126,
      "count": 128,
      "max": [
        0.99140822887420654,
        0.98960608243942261,
        0.99140822887420654
      ],
      "min": [
        -0.99140822887420654,
        -0.98960608243942261,
        -0.99140822887420654
      ],
      "type": "VEC3"
    },
    {
      "bufferView": 1,
      "byteOffset": 68552,
      "componentType": 5126,
      "count": 128,
      "max": [
        0,
        0
      ],
      "min": [
        0,
        0
      ],
      "type": "VEC2"
    },
    {
      "bufferView": 0,
      "byteOffset": 122064,
      "componentType": 5125,
      "count": 756,
      "max": [
        127
      ],
      "min": [
        0
      ],
      "type": "SCALAR"
    },
    {
      "bufferView": 2,
      "byteOffset": 208728,
      "componentType": 5126,
      "count": 128,
      "max": [
        1,
        0,
        1
      ],
      "min": [
        -1,
        -3.8725941181182861,
        -1
      ],
      "type": "VEC3"
    },
    {
      "bufferView": 2,
      "byteOffset": 210264,
      "componentType": 5126,
      "count": 128,
      "max": [
        0.99140822887420654,
        0.98960608243942261,
        0.99140822887420654
      ],
      "min": [
        -0.99140822887420654,
        -0.98960608243942261,
        -0.99140822887420654
      ],
      "type": "VEC3"
    },
    {
      "bufferView": 1,
      "byteOffset": 69576,
      "componentType": 5126,
      "count": 128,
      "max": [
        0,
        0
      ],
      "min": [
        0,
        0
      ],
      "type": "VEC2"
    },
    {
      "bufferView": 0,
      "byteOffset": 125088,
      "componentType": 5125,
      "count": 756,
      "max": [
        127
      ],
      "min": [
        0
      ],
      "type": "SCALAR"
    },
    {
      "bufferView": 2,
      "byteOffset": 211800,
      "componentType": 5126,
      "count": 128,
      "max": [
        1,
        0,
        1
      ],
      "min": [
        -1,
        -3.8725941181182861,
        -1
      ],
      "type": "VEC3"
    },
    {
      "bufferView": 2,
      "byteOffset": 213336,
      "componentType": 5126,
      "count": 128,
      "max": [
        0.99140822887420654,
        0.98960608243942261,
        0.99140822887420654
      ],
      "min": [
        -0.99140822887420654,
        -0.98960608243942261,
        -0.99140822887420654
      ],
      "type": "VEC3"
    },
    {
      "bufferView": 1,
      "byteOffset": 70600,
      "componentType": 5126,
      "count": 128,
      "max": [
        0,
        0
      ],
      "min": [
        0,
        0
      ],
      "type": "VEC2"
    },
    {
      "bufferView": 0,
      "byteOffset": 128112,
      "componentType": 5125,
      "count": 756,
      "max": [
        127
      ],
      "min": [
        0
      ],
      "type": "SCALAR"
    },
    {
      "bufferView": 2,
      "byteOffset": 214872,
      "componentType": 5126,
      "count": 1322,
      "max": [
        0.99470663070678711,
        0.36647674441337585,
        0.98930567502975464
      ],
      "min": [
        -0.99470686912536621,
        -0.081992454826831818,
        -0.98738652467727661
      ],
      "type": "VEC3"
    },
    {
      "bufferView": 2,
      "byteOffset": 230736,
      "componentType": 5126,
      "count": 1322,
      "max": [
        1,
        1,
        1
      ],
      "min": [
        -1,
        -1,
        -1
      ],
      "type": "VEC3"
    },
    {
      "bufferView": 1,
      "byteOffset": 71624,
      "componentType": 5126,
      "count": 1322,
      "max": [
        1.0000001192092896,
        1.0000001192092896
      ],
      "min": [
        0,
        0
      ],
      "type": "VEC2"
    },
    {
      "bufferView": 0,
      "byteOffset": 131136,
      "componentType": 5125,
      "count": 6144,
      "max": [
        1321
      ],
      "min": [
        0
      ],
      "type": "SCALAR"
    },
    {
      "bufferView": 2,
      "byteOffset": 246600,
      "componentType": 5126,
      "count": 1322,
      "max": [
        0.99470663070678711,
        0.36647674441337585,
        0.98930567502975464
      ],
      "min": [
        -0.99470686912536621,
        -0.081992454826831818,
        -0.98738652467727661
      ],
      "type": "VEC3"
    },
    {
      "bufferView": 2,
      "byteOffset": 262464,
      "componentType": 5126,
      "count": 1322,
      "max": [
        1,
        1,
        1
      ],
      "min": [
        -1,
        -1,
        -1
      ],
      "type": "VEC3"
    },
    {
      "bufferView": 1,
      "byteOffset": 82200,
      "componentType": 5126,
      "count": 1322,
      "max": [
        1.0000001192092896,
        1.0000001192092896
      ],
      "min": [
        0,
        0
      ],
      "type": "VEC2"
    },
    {
      "bufferView": 0,
      "byteOffset": 155712,
      "componentType": 5125,
      "count": 6144,
      "max": [
        1321
      ],
      "min": [
        0
      ],
      "type": "SCALAR"
    },
    {
      "bufferView": 2,
      "byteOffset": 278328,
      "componentType": 5126,
      "count": 1340,
      "max": [
        0.7281525731086731,
        0.35248437523841858,
        0.47486421465873718
      ],
      "min": [
        -0.72775775194168091,
        0,
        -0.4734557569026947
      ],
      "type": "VEC3"
    },
    {
      "bufferView": 2,
      "byteOffset": 294408,
      "componentType": 5126,
      "count": 1340,
      "max": [
        1,
        1,
        1
      ],
      "min": [
        -1,
        -1,
        -1
      ],
      "type": "VEC3"
    },
    {
      "bufferView": 1,
      "byteOffset": 92776,
      "componentType": 5126,
      "count": 1340,
      "max": [
        1.0000001192092896,
        1.0000001192092896
      ],
      "min": [
        0,
        0
      ],
      "type": "VEC2"
    },
    {
      "bufferView": 0,
      "byteOffset": 180288,
      "componentType": 5125,
      "count": 6144,
      "max": [
        1339
      ],
      "min": [
        0
      ],
      "type": "SCALAR"
    },
    {
      "bufferView": 2,
      "byteOffset": 310488,
      "componentType": 5126,
      "count": 1340,
      "max": [
        0.98718881607055664,
        0.34269344806671143,
        0.55656886100769043
      ],
      "min": [
        -0.98665356636047363,
        0,
        -0.55491805076599121
      ],
      "type": "VEC3"
    },
    {
      "bufferView": 2,
      "byteOffset": 326568,
      "componentType": 5126,
      "count": 1340,
      "max": [
        1,
        1,
        1
      ],
      "min": [
        -1,
        -1,
        -1
      ],
      "type": "VEC3"
    },
    {
      "bufferView": 1,
      "byteOffset": 103496,
      "componentType": 5126,
      "count": 1340,
      "max": [
        1.0000001192092896,
        1.0000001192092896
      ],
      "min": [
        0,
        0
      ],
      "type": "VEC2"
    },
    {
      "bufferView": 0,
      "byteOffset": 204864,
      "componentType": 5125,
      "count": 6144,
      "max": [
        1339
      ],
      "min": [
        0
      ],
      "type": "SCALAR"
    },
    {
      "bufferView": 2,
      "byteOffset": 342648,
      "componentType": 5126,
      "count": 1340,
      "max": [
        0.7281525731086731,
        0.35248437523841858,
        0.47486421465873718
      ],
      "min": [
        -0.72775775194168091,
        0,
        -0.4734557569026947
      ],
      "type": "VEC3"
    },
    {
      "bufferView": 2,
      "byteOffset": 358728,
      "componentType": 5126,
      "count": 1340,
      "max": [
        1,
        1,
        1
      ],
      "min": [
        -1,
        -1,
        -1
      ],
      "type": "VEC3"
    },
    {
      "bufferView": 1,
      "byteOffset": 114216,
      "componentType": 5126,
      "count": 1340,
      "max": [
        1.0000001192092896,
        1.0000001192092896
      ],
      "min": [
        0,
        0
      ],
      "type": "VEC2"
    },
    {
      "bufferView": 0,
      "byteOffset": 229440,
      "componentType": 5125,
      "count": 6144,
      "max": [
        1339
      ],
      "min": [
        0
      ],
      "type": "SCALAR"
    },
    {
      "bufferView": 2,
      "byteOffset": 374808,
      "componentType": 5126,
      "count": 1340,
      "max": [
        0.68637484312057495,
        0.34256210923194885,
        0.43128654360771179
      ],
      "min": [
        -0.68600261211395264,
        0,
        -0.43000730872154236
      ],
      "type": "VEC3"
    },
    {
      "bufferView": 2,
      "byteOffset": 390888,
      "componentType": 5126,
      "count": 1340,
      "max": [
        1,
        1,
        1
      ],
      "min": [
        -1,
        -1,
        -1
      ],
      "type": "VEC3"
    },
    {
      "bufferView": 1,
      "byteOffset": 124936,
      "componentType": 5126,
      "count": 1340,
      "max": [
        1.0000001192092896,
        1.0000001192092896
      ],
      "min": [
        0,
        0
      ],
      "type": "VEC2"
    },
    {
      "bufferView": 0,
      "byteOffset": 254016,
      "componentType": 5125,
      "count": 6144,
      "max": [
        1339
      ],
      "min": [
        0
      ],
      "type": "SCALAR"
    },
    {
      "bufferView": 2,
      "byteOffset": 406968,
      "componentType": 5126,
      "count": 1340,
      "max": [
        0.68637484312057495,
        0.34256210923194885,
        0.43128654360771179
      ],
      "min": [
        -0.68600261211395264,
        0,
        -0.43000730872154236
      ],
      "type": "VEC3"
    },
    {
      "bufferView": 2,
      "byteOffset": 423048,
      "componentType": 5126,
      "count": 1340,
      "max": [
        1,
        1,
        1
      ],
      "min": [
        -1,
        -1,
        -1
      ],
      "type": "VEC3"
    },
    {
      "bufferView": 1,
      "byteOffset": 135656,
      "componentType": 5126,
      "count": 1340,
      "max": [
        1.0000001192092896,
        1.0000001192092896
      ],
      "min": [
        0,
        0
      ],
      "type": "VEC2"
    },
    {
      "bufferView": 0,
      "byteOffset": 278592,
      "componentType": 5125,
      "count": 6144,
      "max": [
        1339
      ],
      "min": [
        0
      ],
      "type": "SCALAR"
    }
  ],
  "asset": {
    "extras": {
      "author": "sudeepsingh (https://sketchfab.com/sudeepsingh)",
      "license": "CC-BY-4.0 (http://creativecommons.org/licenses/by/4.0/)",
      "source": "https://sketchfab.com/3d-models/modern-couch-e07980eccfa143a98b87c742d10e30e2",
      "title": "Modern Couch"
    },
    "generator": "Sketchfab-7.98.1",
    "version": "2.0"
  },
  "bufferViews": [
    {
      "buffer": 0,
      "byteLength": 303168,
      "byteOffset": 0,
      "name": "floatBufferViews",
      "target": 34963
    },
    {
      "buffer": 0,
      "byteLength": 146376,
      "byteOffset": 303168,
      "byteStride": 8,
      "name": "floatBufferViews",
      "target": 34962
    },
    {
      "buffer": 0,
      "byteLength": 439128,
      "byteOffset": 449544,
      "byteStride": 12,
      "name": "floatBufferViews",
      "target": 34962
    }
  ],
  "buffers": [
    {
      "byteLength": 888672,
      "uri": "scene.bin"
    }
  ],
  "materials": [
    {
      "doubleSided": true,
      "emissiveFactor": [
        0,
        0,
        0
      ],
      "name": "Sofa",
      "pbrMetallicRoughness": {
        "baseColorFactor": [
          0.0014175000000000001,
          0.00057661099999999988,
          0.0006113869999999998,
          1
        ],
        "metallicFactor": 0,
        "roughnessFactor": 0.41045453620679451
      }
    },
    {
      "doubleSided": true,
      "emissiveFactor": [
        0,
        0,
        0
      ],
      "name": "Metal",
      "pbrMetallicRoughness": {
        "baseColorFactor": [
          0.80000000000000004,
          0.80000000000000004,
          0.80000000000000004,
          1
        ],
        "metallicFactor": 1,
        "roughnessFactor": 0.31954544529770357
      }
    }
  ],
  "meshes": [
    {
      "primitives": [
        {
          "attributes": {
            "NORMAL": 1,
            "POSITION": 0,
            "TEXCOORD_0": 2
          },
          "indices": 3,
          "material": 0,
          "mode": 4
        }
      ]
    },
    {
      "primitives": [
        {
          "attributes": {
            "NORMAL": 5,
            "POSITION": 4,
            "TEXCOORD_0": 6
          },
          "indices": 7,
          "material": 1,
          "mode": 4
        }
      ]
    },
    {
      "primitives": [
        {
          "attributes": {
            "NORMAL": 9,
            "POSITION": 8,
            "TEXCOORD_0": 10
          },
          "indices": 11,
          "material": 1,
          "mode": 4
        }
      ]
    },
    {
      "primitives": [
        {
          "attributes": {
            "NORMAL": 13,
            "POSITION": 12,
            "TEXCOORD_0": 14
          },
          "indices": 15,
          "material": 1,
          "mode": 4
        }
      ]
    },
    {
      "primitives": [
        {
          "attributes": {
            "NORMAL": 17,
            "POSITION": 16,
            "TEXCOORD_0": 18
          },
          "indices": 19,
          "material": 1,
          "mode": 4
        }
      ]
    },
    {
      "primitives": [
        {
          "attributes": {
            "NORMAL": 21,
            "POSITION": 20,
            "TEXCOORD_0": 22
          },
          "indices": 23,
          "material": 0,
          "mode": 4
        }
      ]
    },
    {
      "primitives": [
        {
          "attributes": {
            "NORMAL": 25,
            "POSITION": 24,
            "TEXCOORD_0": 26
          },
          "indices": 27,
          "material": 0,
          "mode": 4
        }
      ]
    },
    {
      "primitives": [
        {
          "attributes": {
            "NORMAL": 29,
            "POSITION": 28,
            "TEXCOORD_0": 30
          },
          "indices": 31,
          "material": 0,
          "mode": 4
        }
      ]
    },
    {
      "primitives": [
        {
          "attributes": {
            "NORMAL": 33,
            "POSITION": 32,
            "TEXCOORD_0": 34
          },
          "indices": 35,
          "material": 0,
          "mode": 4
        }
      ]
    },
    {
      "primitives": [
        {
          "attributes": {
            "NORMAL": 37,
            "POSITION": 36,
            "TEXCOORD_0": 38
          },
          "indices": 39,
          "material": 0,
          "mode": 4
        }
      ]
    },
    {
      "primitives": [
        {
          "attributes": {
            "NORMAL": 41,
            "POSITION": 40,
            "TEXCOORD_0": 42
          },
          "indices": 43,
          "material": 0,
          "mode": 4
        }
      ]
    },
    {
      "primitives": [
        {
          "attributes": {
            "NORMAL": 45,
            "POSITION": 44,
            "TEXCOORD_0": 46
          },
          "indices": 47,
          "material": 0,
          "mode": 4
        }
      ]
    }
  ],
  "nodes": [
    {
      "children": [
        1
      ],
      "name": "RootNode (gltf orientation matrix)",
      "rotation": [
        -0.70710678118654746,
        -0,
        -0,
        0.70710678118654757
      ]
    },
    {
      "children": [
        2
      ],
      "name": "RootNode (model correction matrix)"
    },
    {
      "children": [
        3
      ],
      "name": "root"
    },
    {
      "children": [
        4
      ],
      "matrix": [
        1,
        0,
        0,
        0,
        0,
        2.2204460492503131e-16,
        1,
        0,
        0,
        -1,
        2.2204460492503131e-16,
        0,
        0,
        0,
        0,
        1
      ],
      "name": "GLTF_SceneRootNode"
    },
    {
      "children": [
        5,
        6,
        8,
        10,
        12,
        14,
        16,
        18,
        20,
        22,
        24,
        26
      ],
      "matrix": [
        -2.8776807785032648,
        0,
        9.3766744696183196e-07,
        0,
        0,
        1,
        0,
        0,
        -3.2584136988588439e-07,
        0,
        -0.99999999999994671,
        0,
        -0.047704651951789856,
        0.62345713376998901,
        0.76892685890197754,
        1
      ],
      "name": "Couch_11"
    },
    {
      "mesh": 0,
      "name": ""
    },
    {
      "children": [
        7
      ],
      "matrix": [
        0.034085791558027267,
        0,
        0,
        0,
        0,
        0.09808802604675293,
        0,
        0,
        0,
        0,
        0.09808802604675293,
        0,
        0.91606652736663818,
        0.044778227806091309,
        0.77590054273605347,
        1
      ],
      "name": "Circle_0"
    },
    {
      "mesh": 1,
      "name": ""
    },
    {
      "children": [
        9
      ],
      "matrix": [
        0.034085791558027267,
        0,
        0,
        0,
        0,
        0.09808802604675293,
        0,
        0,
        0,
        0,
        0.09808802604675293,
        0,
        0.91606646776199341,
        0.044778227806091309,
        -0.46685028076171875,
        1
      ],
      "name": "Circle.001_1"
    },
    {
      "mesh": 2,
      "name": ""
    },
    {
      "children": [
        11
      ],
      "matrix": [
        0.034085791558027267,
        0,
        0,
        0,
        0,
        0.09808802604675293,
        0,
        0,
        0,
        0,
        0.09808802604675293,
        0,
        -0.91634970903396606,
        0.044778227806091309,
        -0.46685028076171875,
        1
      ],
      "name": "Circle.002_2"
    },
    {
      "mesh": 3,
      "name": ""
    },
    {
      "children": [
        13
      ],
      "matrix": [
        0.034085791558027267,
        0,
        0,
        0,
        0,
        0.09808802604675293,
        0,
        0,
        0,
        0,
        0.09808802604675293,
        0,
        -0.91634964942932129,
        0.044778227806091309,
        0.72783839702606201,
        1
      ],
      "name": "Circle.003_3"
    },
    {
      "mesh": 4,
      "name": ""
    },
    {
      "children": [
        15
      ],
      "matrix": [
        0.4246830940246582,
        0,
        0,
        0,
        0,
        1.1883043050765991,
        0,
        0,
        0,
        0,
        0.81344670057296753,
        0,
        0.41839194297790527,
        0.48965531587600708,
        0.15698069334030151,
        1
      ],
      "name": "Plane_4"
    },
    {
      "mesh": 5,
      "name": ""
    },
    {
      "children": [
        17
      ],
      "matrix": [
        0.42019221186637878,
        0,
        0,
        0,
        0,
        1.1883043050765991,
        0,
        0,
        0,
        0,
        0.81344670057296753,
        0,
        -0.42043811082839966,
        0.48965531587600708,
        0.15698087215423584,
        1
      ],
      "name": "Plane.001_5"
    },
    {
      "mesh": 6,
      "name": ""
    },
    {
      "children": [
        19
      ],
      "matrix": [
        -0.47115731458862115,
        0.0053610158887331507,
        -0.002337531075507234,
        0,
        -0.003168947251125283,
        0.14092330163020159,
        0.961940039901928,
        0,
        0.014036919150067974,
        1.1595948670468876,
        -0.1698333037244017,
        0,
        0.0072809681296348572,
        1.480478048324585,
        -0.63978159427642822,
        1
      ],
      "name": "Plane.003_6"
    },
    {
      "mesh": 7,
      "name": ""
    },
    {
      "children": [
        21
      ],
      "matrix": [
        -0.34752662941384271,
        0.0039542969874265714,
        -0.0017241677015662127,
        0,
        -0.0032594862143623961,
        0.14494950139666493,
        0.98942326367117206,
        0,
        0.011976295055478575,
        0.9893659288795712,
        -0.14490164804630809,
        0,
        0.68966495990753174,
        1.480478048324585,
        -0.63978147506713867,
        1
      ],
      "name": "Plane.004_7"
    },
    {
      "mesh": 8,
      "name": ""
    },
    {
      "children": [
        23
      ],
      "matrix": [
        -0.47115731458862115,
        0.0053610158887331507,
        -0.002337531075507234,
        0,
        -0.003168947251125283,
        0.14092330163020159,
        0.961940039901928,
        0,
        0.014036919150067974,
        1.1595948670468876,
        -0.1698333037244017,
        0,
        -0.67510294914245605,
        1.480478048324585,
        -0.63978159427642822,
        1
      ],
      "name": "Plane.005_8"
    },
    {
      "mesh": 9,
      "name": ""
    },
    {
      "children": [
        25
      ],
      "matrix": [
        0.0077500700855324903,
        -0.013083011746597813,
        -0.99988056378615964,
        0,
        -0.046732100732732797,
        0.99844150635640094,
        -0.013426402610567758,
        0,
        0.3481992342129332,
        0.016330900695427152,
        0.0024852079270735786,
        0,
        -0.8581395149230957,
        0.9020121693611145,
        0.28268903493881226,
        1
      ],
      "name": "Plane.006_9"
    },
    {
      "mesh": 10,
      "name": ""
    },
    {
      "children": [
        27
      ],
      "matrix": [
        0.0077500700855324903,
        -0.013083011746597813,
        -0.99988056378615964,
        0,
        -0.046732100732732797,
        0.99844150635640094,
        -0.013426402610567758,
        0,
        0.3481992342129332,
        0.016330900695427152,
        0.0024852079270735786,
        0,
        0.85308182239532471,
        0.9020121693611145,
        0.28268918395042419,
        1
      ],
      "name": "Plane.007_10"
    },
    {
      "mesh": 11,
      "name": ""
    }
  ],
  "scene": 0,
  "scenes": [
    {
      "name": "OSG_Scene",
      "nodes": [
        0
      ]
    }
  ]
}

