{
  "accessors": [
    {
      "bufferView": 2,
      "componentType": 5126,
      "count": 3061,
      "max": [
        0.58090460300445557,
        1.1693286895751953,
        0.36996883153915405
      ],
      "min": [
        -0.58090460300445557,
        -1.1693376302719116,
        -0.53774148225784302
      ],
      "type": "VEC3"
    },
    {
      "bufferView": 2,
      "byteOffset": 36732,
      "componentType": 5126,
      "count": 3061,
      "max": [
        1,
        1,
        1
      ],
      "min": [
        -1,
        -1,
        -1
      ],
      "type": "VEC3"
    },
    {
      "bufferView": 1,
      "componentType": 5126,
      "count": 3061,
      "max": [
        0.99325823783874512,
        0.99994689226150513
      ],
      "min": [
        0.0008074343204498291,
        5.2601099014282227e-05
      ],
      "type": "VEC2"
    },
    {
      "bufferView": 0,
      "componentType": 5125,
      "count": 9978,
      "max": [
        3060
      ],
      "min": [
        0
      ],
      "type": "SCALAR"
    },
    {
      "bufferView": 2,
      "byteOffset": 73464,
      "componentType": 5126,
      "count": 140,
      "max": [
        0.4286072850227356,
        1.1049256324768066,
        0.35998237133026123
      ],
      "min": [
        0.096740841865539551,
        0.68257391452789307,
        -0.56886172294616699
      ],
      "type": "VEC3"
    },
    {
      "bufferView": 2,
      "byteOffset": 75144,
      "componentType": 5126,
      "count": 140,
      "max": [
        0,
        0,
        1
      ],
      "min": [
        0,
        0,
        -1
      ],
      "type": "VEC3"
    },
    {
      "bufferView": 1,
      "byteOffset": 24488,
      "componentType": 5126,
      "count": 140,
      "max": [
        0.75697141885757446,
        0.68300414085388184
      ],
      "min": [
        0.35884112119674683,
        0.6271241307258606
      ],
      "type": "VEC2"
    },
    {
      "bufferView": 0,
      "byteOffset": 39912,
      "componentType": 5125,
      "count": 396,
      "max": [
        139
      ],
      "min": [
        0
      ],
      "type": "SCALAR"
    },
    {
      "bufferView": 2,
      "byteOffset": 76824,
      "componentType": 5126,
      "count": 671,
      "max": [
        0.40120977163314819,
        1.0973638296127319,
        0.3475639820098877
      ],
      "min": [
        0.1043722853064537,
        0.70938706398010254,
        -0.50242364406585693
      ],
      "type": "VEC3"
    },
    {
      "bufferView": 2,
      "byteOffset": 84876,
      "componentType": 5126,
      "count": 671,
      "max": [
        0.93479859828948975,
        0.9500964879989624,
        1
      ],
      "min": [
        -0.9648967981338501,
        -0.95132023096084595,
        -1
      ],
      "type": "VEC3"
    },
    {
      "bufferView": 1,
      "byteOffset": 25608,
      "componentType": 5126,
      "count": 671,
      "max": [
        0.7498859167098999,
        0.7500954270362854
      ],
      "min": [
        0.22967129945755005,
        0.59554028511047363
      ],
      "type": "VEC2"
    },
    {
      "bufferView": 0,
      "byteOffset": 41496,
      "componentType": 5125,
      "count": 2388,
      "max": [
        670
      ],
      "min": [
        0
      ],
      "type": "SCALAR"
    },
    {
      "bufferView": 2,
      "byteOffset": 92928,
      "componentType": 5126,
      "count": 78,
      "max": [
        0.53643357753753662,
        1.1307089328765869,
        0.36130204796791077
      ],
      "min": [
        -0.53018909692764282,
        -1.1307103633880615,
        0.35906296968460083
      ],
      "type": "VEC3"
    },
    {
      "bufferView": 2,
      "byteOffset": 93864,
      "componentType": 5126,
      "count": 78,
      "max": [
        0,
        0,
        1
      ],
      "min": [
        -9.1558293206617236e-05,
        -0.008728494867682457,
        0.9999619722366333
      ],
      "type": "VEC3"
    },
    {
      "bufferView": 1,
      "byteOffset": 30976,
      "componentType": 5126,
      "count": 78,
      "max": [
        0.7942047119140625,
        0.50353389978408813
      ],
      "min": [
        0.53841763734817505,
        8.3148479461669922e-05
      ],
      "type": "VEC2"
    },
    {
      "bufferView": 0,
      "byteOffset": 51048,
      "componentType": 5125,
      "count": 228,
      "max": [
        77
      ],
      "min": [
        0
      ],
      "type": "SCALAR"
    },
    {
      "bufferView": 2,
      "byteOffset": 94800,
      "componentType": 5126,
      "count": 1246,
      "max": [
        0.55174165964126587,
        1.1555767059326172,
        0.36996883153915405
      ],
      "min": [
        -0.57112544775009155,
        -1.1693376302719116,
        -0.56886178255081177
      ],
      "type": "VEC3"
    },
    {
      "bufferView": 2,
      "byteOffset": 109752,
      "componentType": 5126,
      "count": 1246,
      "max": [
        0.9998936653137207,
        1,
        1
      ],
      "min": [
        -1,
        -1,
        -1
      ],
      "type": "VEC3"
    },
    {
      "bufferView": 1,
      "byteOffset": 31600,
      "componentType": 5126,
      "count": 1246,
      "max": [
        0.99999994039535522,
        0.7720482349395752
      ],
      "min": [
        0.16626083850860596,
        0
      ],
      "type": "VEC2"
    },
    {
      "bufferView": 0,
      "byteOffset": 51960,
      "componentType": 5125,
      "count": 3378,
      "max": [
        1245
      ],
      "min": [
        0
      ],
      "type": "SCALAR"
    },
    {
      "bufferView": 2,
      "byteOffset": 124704,
      "componentType": 5126,
      "count": 285,
      "max": [
        0.10994082689285278,
        0.15316787362098694,
        -0.36297833919525146
      ],
      "min": [
        -0.11005448549985886,
        -0.11512177437543869,
        -0.37005916237831116
      ],
      "type": "VEC3"
    },
    {
      "bufferView": 2,
      "byteOffset": 128124,
      "componentType": 5126,
      "count": 285,
      "max": [
        0.9998784065246582,
        1,
        -0
      ],
      "min": [
        -1,
        -0.99947071075439453,
        -1
      ],
      "type": "VEC3"
    },
    {
      "bufferView": 1,
      "byteOffset": 41568,
      "componentType": 5126,
      "count": 285,
      "max": [
        0.76146405935287476,
        0.77145463228225708
      ],
      "min": [
        0.16645103693008423,
        0.58165168762207031
      ],
      "type": "VEC2"
    },
    {
      "bufferView": 0,
      "byteOffset": 65472,
      "componentType": 5125,
      "count": 771,
      "max": [
        284
      ],
      "min": [
        0
      ],
      "type": "SCALAR"
    },
    {
      "bufferView": 2,
      "byteOffset": 131544,
      "componentType": 5126,
      "count": 586,
      "max": [
        0.4286072850227356,
        1.1049256324768066,
        0.35998237133026123
      ],
      "min": [
        0.096740841865539551,
        0.68257391452789307,
        -0.56886172294616699
      ],
      "type": "VEC3"
    },
    {
      "bufferView": 2,
      "byteOffset": 138576,
      "componentType": 5126,
      "count": 586,
      "max": [
        0.98976039886474609,
        0.98162007331848145,
        1
      ],
      "min": [
        -0.98976039886474609,
        -0.98162007331848145,
        -1
      ],
      "type": "VEC3"
    },
    {
      "bufferView": 1,
      "byteOffset": 43848,
      "componentType": 5126,
      "count": 586,
      "max": [
        0.75913792848587036,
        0.75194847583770752
      ],
      "min": [
        0.20894360542297363,
        0.54480183124542236
      ],
      "type": "VEC2"
    },
    {
      "bufferView": 0,
      "byteOffset": 68556,
      "componentType": 5125,
      "count": 1662,
      "max": [
        585
      ],
      "min": [
        0
      ],
      "type": "SCALAR"
    },
    {
      "bufferView": 2,
      "byteOffset": 145608,
      "componentType": 5126,
      "count": 1199,
      "max": [
        0.47724375128746033,
        1.0742058753967285,
        -0.38147327303886414
      ],
      "min": [
        0.069918729364871979,
        0.6340135931968689,
        -0.56886178255081177
      ],
      "type": "VEC3"
    },
    {
      "bufferView": 2,
      "byteOffset": 159996,
      "componentType": 5126,
      "count": 1199,
      "max": [
        0.99939143657684326,
        0.99939143657684326,
        -0
      ],
      "min": [
        -0.99939143657684326,
        -0.99939143657684326,
        -1
      ],
      "type": "VEC3"
    },
    {
      "bufferView": 1,
      "byteOffset": 48536,
      "componentType": 5126,
      "count": 1199,
      "max": [
        0.78794831037521362,
        0.76528573036193848
      ],
      "min": [
        0.16641867160797119,
        0.58286279439926147
      ],
      "type": "VEC2"
    },
    {
      "bufferView": 0,
      "byteOffset": 75204,
      "componentType": 5125,
      "count": 3708,
      "max": [
        1198
      ],
      "min": [
        0
      ],
      "type": "SCALAR"
    },
    {
      "bufferView": 2,
      "byteOffset": 174384,
      "componentType": 5126,
      "count": 24,
      "max": [
        0.19807685911655426,
        1.0617642402648926,
        -0.52760249376296997
      ],
      "min": [
        0.13053466379642487,
        0.99422210454940796,
        -0.5276026725769043
      ],
      "type": "VEC3"
    },
    {
      "bufferView": 2,
      "byteOffset": 174672,
      "componentType": 5126,
      "count": 24,
      "max": [
        0,
        0,
        -1
      ],
      "min": [
        0,
        0,
        -1
      ],
      "type": "VEC3"
    },
    {
      "bufferView": 1,
      "byteOffset": 58128,
      "componentType": 5126,
      "count": 24,
      "max": [
        0.25074601173400879,
        0.63565289974212646
      ],
      "min": [
        0.23461586236953735,
        0.62067598104476929
      ],
      "type": "VEC2"
    },
    {
      "bufferView": 0,
      "byteOffset": 90036,
      "componentType": 5125,
      "count": 66,
      "max": [
        23
      ],
      "min": [
        0
      ],
      "type": "SCALAR"
    },
    {
      "bufferView": 2,
      "byteOffset": 174960,
      "componentType": 5126,
      "count": 20,
      "max": [
        0.061378117650747299,
        1.0926285982131958,
        0.33326724171638489
      ],
      "min": [
        -0.054960098117589951,
        1.0755443572998047,
        0.33125925064086914
      ],
      "type": "VEC3"
    },
    {
      "bufferView": 2,
      "byteOffset": 175200,
      "componentType": 5126,
      "count": 20,
      "max": [
        -0.00094607658684253693,
        0.017273528501391411,
        0.99985039234161377
      ],
      "min": [
        -0.00094607658684253693,
        0.017273528501391411,
        0.99985039234161377
      ],
      "type": "VEC3"
    },
    {
      "bufferView": 1,
      "byteOffset": 58320,
      "componentType": 5126,
      "count": 20,
      "max": [
        0.53683251142501831,
        0.60893708467483521
      ],
      "min": [
        0.53273379802703857,
        0.58304828405380249
      ],
      "type": "VEC2"
    },
    {
      "bufferView": 0,
      "byteOffset": 90300,
      "componentType": 5125,
      "count": 54,
      "max": [
        19
      ],
      "min": [
        0
      ],
      "type": "SCALAR"
    },
    {
      "bufferView": 2,
      "byteOffset": 175440,
      "componentType": 5126,
      "count": 138,
      "max": [
        0.57112544775009155,
        1.1693286895751953,
        0.36996883153915405
      ],
      "min": [
        -0.57112544775009155,
        -0.93806982040405273,
        -0.37005916237831116
      ],
      "type": "VEC3"
    },
    {
      "bufferView": 2,
      "byteOffset": 177096,
      "componentType": 5126,
      "count": 138,
      "max": [
        1,
        0.99879664182662964,
        0.5693400502204895
      ],
      "min": [
        -1,
        0,
        -0.4465273916721344
      ],
      "type": "VEC3"
    },
    {
      "bufferView": 1,
      "byteOffset": 58480,
      "componentType": 5126,
      "count": 138,
      "max": [
        0.99325811862945557,
        0.96204030513763428
      ],
      "min": [
        0.54250270128250122,
        0.037863701581954956
      ],
      "type": "VEC2"
    },
    {
      "bufferView": 0,
      "byteOffset": 90516,
      "componentType": 5125,
      "count": 318,
      "max": [
        137
      ],
      "min": [
        0
      ],
      "type": "SCALAR"
    },
    {
      "bufferView": 2,
      "byteOffset": 178752,
      "componentType": 5126,
      "count": 55,
      "max": [
        -0.57112520933151245,
        -0.48552307486534119,
        0.13534724712371826
      ],
      "min": [
        -0.57112544775009155,
        -0.73897093534469604,
        -0.14565742015838623
      ],
      "type": "VEC3"
    },
    {
      "bufferView": 2,
      "byteOffset": 179412,
      "componentType": 5126,
      "count": 55,
      "max": [
        -1,
        0,
        -0
      ],
      "min": [
        -1,
        0,
        -0
      ],
      "type": "VEC3"
    },
    {
      "bufferView": 1,
      "byteOffset": 59584,
      "componentType": 5126,
      "count": 55,
      "max": [
        0.45510128140449524,
        0.68329894542694092
      ],
      "min": [
        0.39429497718811035,
        0.62091571092605591
      ],
      "type": "VEC2"
    },
    {
      "bufferView": 0,
      "byteOffset": 91788,
      "componentType": 5125,
      "count": 165,
      "max": [
        54
      ],
      "min": [
        0
      ],
      "type": "SCALAR"
    }
  ],
  "asset": {
    "extras": {
      "author": "Omer Bhatti (https://sketchfab.com/OmerBhatti)",
      "license": "CC-BY-4.0 (http://creativecommons.org/licenses/by/4.0/)",
      "source": "https://sketchfab.com/3d-models/iphone-12-gold-plated-hq-6430f1f3277f40d0b05e73696255e344",
      "title": "iPhone 12 Gold Plated | HQ"
    },
    "generator": "Sketchfab-9.52.0",
    "version": "2.0"
  },
  "bufferViews": [
    {
      "buffer": 0,
      "byteLength": 92448,
      "byteOffset": 0,
      "name": "floatBufferViews",
      "target": 34963
    },
    {
      "buffer": 0,
      "byteLength": 60024,
      "byteOffset": 92448,
      "byteStride": 8,
      "name": "floatBufferViews",
      "target": 34962
    },
    {
      "buffer": 0,
      "byteLength": 180072,
      "byteOffset": 152472,
      "byteStride": 12,
      "name": "floatBufferViews",
      "target": 34962
    }
  ],
  "buffers": [
    {
      "byteLength": 332544,
      "uri": "scene.bin"
    }
  ],
  "images": [
    {
      "uri": "textures/Screen_emissive.png"
    }
  ],
  "materials": [
    {
      "doubleSided": true,
      "emissiveFactor": [
        0,
        0,
        0
      ],
      "name": "Body",
      "pbrMetallicRoughness": {
        "baseColorFactor": [
          1,
          0.458042,
          0,
          1
        ],
        "metallicFactor": 1,
        "roughnessFactor": 0.08075229982549903
      }
    },
    {
      "alphaMode": "BLEND",
      "doubleSided": true,
      "emissiveFactor": [
        0,
        0,
        0
      ],
      "name": "Glass",
      "pbrMetallicRoughness": {
        "baseColorFactor": [
          0.022903998576993965,
          0,
          0,
          0.30571870686877162
        ],
        "metallicFactor": 1,
        "roughnessFactor": 1
      }
    },
    {
      "doubleSided": true,
      "name": "Lens",
      "pbrMetallicRoughness": {
        "baseColorFactor": [
          0,
          0.015458351365196823,
          0.035640812458961862,
          1
        ],
        "metallicFactor": 0,
        "roughnessFactor": 0
      }
    },
    {
      "doubleSided": true,
      "emissiveFactor": [
        1,
        1,
        1
      ],
      "emissiveTexture": {
        "index": 0,
        "texCoord": 0
      },
      "name": "Screen",
      "pbrMetallicRoughness": {
        "baseColorFactor": [
          0,
          0,
          0,
          1
        ],
        "metallicFactor": 0,
        "roughnessFactor": 0
      }
    },
    {
      "doubleSided": true,
      "emissiveFactor": [
        0,
        0,
        0
      ],
      "name": "Black",
      "pbrMetallicRoughness": {
        "baseColorFactor": [
          0,
          0,
          0,
          1
        ],
        "metallicFactor": 1,
        "roughnessFactor": 0
      }
    },
    {
      "doubleSided": true,
      "emissiveFactor": [
        0,
        0,
        0
      ],
      "name": "Logo",
      "pbrMetallicRoughness": {
        "baseColorFactor": [
          0.085152777483763292,
          0.085152777483763292,
          0.085152777483763292,
          1
        ],
        "metallicFactor": 1,
        "roughnessFactor": 0.038191087682177188
      }
    },
    {
      "doubleSided": true,
      "emissiveFactor": [
        0,
        0,
        0
      ],
      "name": "inner",
      "pbrMetallicRoughness": {
        "baseColorFactor": [
          0,
          0.018495756798620568,
          0.051766289830066425,
          1
        ],
        "metallicFactor": 0,
        "roughnessFactor": 0.5
      }
    },
    {
      "doubleSided": true,
      "emissiveFactor": [
        0,
        0,
        0
      ],
      "name": "CameraEnd",
      "pbrMetallicRoughness": {
        "baseColorFactor": [
          0.040112326050201257,
          0.040112326050201257,
          0.040112326050201257,
          1
        ],
        "metallicFactor": 1,
        "roughnessFactor": 0.12939368513215257
      }
    },
    {
      "doubleSided": true,
      "emissiveFactor": [
        0.79642151155290264,
        1,
        0
      ],
      "name": "Flash",
      "pbrMetallicRoughness": {
        "baseColorFactor": [
          1,
          0.84644337731278507,
          0,
          1
        ],
        "metallicFactor": 0,
        "roughnessFactor": 1
      }
    },
    {
      "doubleSided": true,
      "emissiveFactor": [
        0,
        0,
        0
      ],
      "name": "Grill",
      "pbrMetallicRoughness": {
        "baseColorFactor": [
          0,
          0,
          0,
          1
        ],
        "metallicFactor": 1,
        "roughnessFactor": 1
      }
    },
    {
      "doubleSided": true,
      "emissiveFactor": [
        0,
        0,
        0
      ],
      "name": "Body.001",
      "pbrMetallicRoughness": {
        "baseColorFactor": [
          0.29038714120494302,
          0.086213231265567097,
          0,
          1
        ],
        "metallicFactor": 1,
        "roughnessFactor": 0.37260061166542024
      }
    },
    {
      "doubleSided": true,
      "emissiveFactor": [
        0,
        0,
        0
      ],
      "name": "Body.002",
      "pbrMetallicRoughness": {
        "baseColorFactor": [
          1,
          0.40627000000000002,
          0,
          1
        ],
        "metallicFactor": 1,
        "roughnessFactor": 0.088888900000000007
      }
    }
  ],
  "meshes": [
    {
      "primitives": [
        {
          "attributes": {
            "NORMAL": 1,
            "POSITION": 0,
            "TEXCOORD_0": 2
          },
          "indices": 3,
          "material": 0,
          "mode": 4
        }
      ]
    },
    {
      "primitives": [
        {
          "attributes": {
            "NORMAL": 5,
            "POSITION": 4,
            "TEXCOORD_0": 6
          },
          "indices": 7,
          "material": 1,
          "mode": 4
        }
      ]
    },
    {
      "primitives": [
        {
          "attributes": {
            "NORMAL": 9,
            "POSITION": 8,
            "TEXCOORD_0": 10
          },
          "indices": 11,
          "material": 2,
          "mode": 4
        }
      ]
    },
    {
      "primitives": [
        {
          "attributes": {
            "NORMAL": 13,
            "POSITION": 12,
            "TEXCOORD_0": 14
          },
          "indices": 15,
          "material": 3,
          "mode": 4
        }
      ]
    },
    {
      "primitives": [
        {
          "attributes": {
            "NORMAL": 17,
            "POSITION": 16,
            "TEXCOORD_0": 18
          },
          "indices": 19,
          "material": 4,
          "mode": 4
        }
      ]
    },
    {
      "primitives": [
        {
          "attributes": {
            "NORMAL": 21,
            "POSITION": 20,
            "TEXCOORD_0": 22
          },
          "indices": 23,
          "material": 5,
          "mode": 4
        }
      ]
    },
    {
      "primitives": [
        {
          "attributes": {
            "NORMAL": 25,
            "POSITION": 24,
            "TEXCOORD_0": 26
          },
          "indices": 27,
          "material": 6,
          "mode": 4
        }
      ]
    },
    {
      "primitives": [
        {
          "attributes": {
            "NORMAL": 29,
            "POSITION": 28,
            "TEXCOORD_0": 30
          },
          "indices": 31,
          "material": 7,
          "mode": 4
        }
      ]
    },
    {
      "primitives": [
        {
          "attributes": {
            "NORMAL": 33,
            "POSITION": 32,
            "TEXCOORD_0": 34
          },
          "indices": 35,
          "material": 8,
          "mode": 4
        }
      ]
    },
    {
      "primitives": [
        {
          "attributes": {
            "NORMAL": 37,
            "POSITION": 36,
            "TEXCOORD_0": 38
          },
          "indices": 39,
          "material": 9,
          "mode": 4
        }
      ]
    },
    {
      "primitives": [
        {
          "attributes": {
            "NORMAL": 41,
            "POSITION": 40,
            "TEXCOORD_0": 42
          },
          "indices": 43,
          "material": 10,
          "mode": 4
        }
      ]
    },
    {
      "primitives": [
        {
          "attributes": {
            "NORMAL": 45,
            "POSITION": 44,
            "TEXCOORD_0": 46
          },
          "indices": 47,
          "material": 11,
          "mode": 4
        }
      ]
    }
  ],
  "nodes": [
    {
      "children": [
        1
      ],
      "name": "RootNode (gltf orientation matrix)",
      "rotation": [
        -0.70710678118654746,
        -0,
        -0,
        0.70710678118654757
      ]
    },
    {
      "children": [
        2
      ],
      "name": "RootNode (model correction matrix)"
    },
    {
      "children": [
        3
      ],
      "name": "root"
    },
    {
      "children": [
        4
      ],
      "matrix": [
        1,
        0,
        0,
        0,
        0,
        2.2204460492503131e-16,
        1,
        0,
        0,
        -1,
        2.2204460492503131e-16,
        0,
        0,
        0,
        0,
        1
      ],
      "name": "GLTF_SceneRootNode"
    },
    {
      "children": [
        5,
        6,
        7,
        8,
        9,
        10,
        11,
        12,
        13,
        14,
        15,
        16
      ],
      "matrix": [
        -0.99999999999952216,
        0,
        9.7752410965744565e-07,
        0,
        -0,
        1,
        0,
        0,
        -1.5237328684602616e-07,
        -0,
        -0.15587675571434201,
        0,
        -0.49023151397705078,
        -0.015617616474628448,
        -0.052499499171972275,
        1
      ],
      "name": "Cube_0"
    },
    {
      "mesh": 0,
      "name": ""
    },
    {
      "mesh": 1,
      "name": ""
    },
    {
      "mesh": 2,
      "name": ""
    },
    {
      "mesh": 3,
      "name": ""
    },
    {
      "mesh": 4,
      "name": ""
    },
    {
      "mesh": 5,
      "name": ""
    },
    {
      "mesh": 6,
      "name": ""
    },
    {
      "mesh": 7,
      "name": ""
    },
    {
      "mesh": 8,
      "name": ""
    },
    {
      "mesh": 9,
      "name": ""
    },
    {
      "mesh": 10,
      "name": ""
    },
    {
      "mesh": 11,
      "name": ""
    }
  ],
  "samplers": [
    {
      "magFilter": 9729,
      "minFilter": 9987,
      "wrapS": 10497,
      "wrapT": 10497
    }
  ],
  "scene": 0,
  "scenes": [
    {
      "name": "OSG_Scene",
      "nodes": [
        0
      ]
    }
  ],
  "textures": [
    {
      "sampler": 0,
      "source": 0
    }
  ]
}

